<svg width="272" height="79" viewBox="0 0 272 79" fill="none" xmlns="http://www.w3.org/2000/svg">
<path d="M28.0734 54.2171H19.5825L23.1013 37.6361L14.0367 54.2171H8.83509L7.11397 37.0603L3.44224 54.2171H0L5.16337 29.8445H14.9164L16.1021 43.5853L23.4455 29.8445H33.275L28.0734 54.2171Z" fill="white"/>
<path d="M31.5061 54.2171L36.6695 29.8445H46.9579C48.5388 29.8445 49.9157 30.0108 51.0886 30.3435C52.2871 30.6505 53.2687 31.1751 54.0337 31.9171C54.8241 32.6592 55.4106 33.6315 55.793 34.8342C56.201 36.0368 56.405 37.5081 56.405 39.2481C56.405 41.116 56.1628 42.9456 55.6783 44.7367C55.2193 46.5279 54.4416 48.1272 53.3452 49.5345C52.2488 50.9419 50.8082 52.0805 49.0233 52.9505C47.2639 53.7949 45.0838 54.2171 42.483 54.2171H31.5061ZM41.9858 51.5304C42.8273 51.5304 43.5667 51.1849 44.2042 50.4941C44.8671 49.7776 45.4281 48.882 45.887 47.8073C46.3715 46.707 46.7667 45.5044 47.0727 44.1994C47.4042 42.8688 47.6591 41.5894 47.8376 40.3612C48.0416 39.133 48.1819 38.0327 48.2584 37.0603C48.3603 36.088 48.4113 35.3971 48.4113 34.9877C48.4113 34.1945 48.2456 33.5803 47.9141 33.1453C47.6082 32.6848 47.0599 32.4545 46.2695 32.4545H44.4336L40.3412 51.5304H41.9858Z" fill="white"/>
<path d="M76.9177 54.2171H67.9679L67.4324 48.1144H60.3567L57.6412 54.2171H53.9312L65.2141 29.8445H74.2787L76.9177 54.2171ZM61.6189 45.3125H67.1647L66.285 34.8725L61.6189 45.3125Z" fill="white"/>
<path d="M121.512 37.0874C121.589 36.7142 121.628 36.2041 121.628 35.5571C121.628 35.1839 121.602 34.8231 121.55 34.4747C121.499 34.1015 121.408 33.778 121.278 33.5043C121.148 33.2057 120.954 32.9818 120.694 32.8325C120.435 32.6583 120.097 32.5712 119.682 32.5712C119.215 32.5712 118.787 32.6707 118.397 32.8698C118.008 33.0689 117.658 33.3301 117.346 33.6536C117.061 33.9522 116.827 34.313 116.646 34.736C116.49 35.1341 116.412 35.5571 116.412 36.005C116.412 36.652 116.581 37.1496 116.918 37.498C117.282 37.8464 117.749 38.1325 118.32 38.3565C118.891 38.5804 119.539 38.767 120.266 38.9163C120.993 39.0656 121.745 39.2398 122.524 39.4389C123.172 39.613 123.821 39.837 124.47 40.1107C125.119 40.3844 125.69 40.7576 126.183 41.2304C126.702 41.6783 127.117 42.2755 127.428 43.022C127.74 43.7436 127.895 44.6518 127.895 45.7466C127.895 47.3142 127.571 48.633 126.922 49.703C126.273 50.7729 125.378 51.6438 124.236 52.3157C123.095 52.9875 121.732 53.4727 120.149 53.7713C118.592 54.0699 116.892 54.2192 115.05 54.2192C113.181 54.2192 111.65 54.1072 110.457 53.8833C109.289 53.6345 108.368 53.3732 107.693 53.0995C106.888 52.776 106.292 52.4028 105.902 51.9798L107.226 46.8664H114.077C114.051 47.0903 114.025 47.4013 113.999 47.7995C113.973 48.1727 113.96 48.4713 113.96 48.6952C113.96 48.9938 113.999 49.3049 114.077 49.6283C114.155 49.9518 114.271 50.2504 114.427 50.5241C114.609 50.7978 114.855 51.0218 115.167 51.1959C115.478 51.3701 115.867 51.4572 116.334 51.4572C116.853 51.4572 117.308 51.3452 117.697 51.1213C118.112 50.8974 118.449 50.6236 118.709 50.3002C118.994 49.9518 119.202 49.5786 119.332 49.1804C119.487 48.7574 119.565 48.3469 119.565 47.9487C119.565 47.4013 119.423 46.941 119.137 46.5678C118.878 46.1945 118.514 45.8835 118.047 45.6347C117.58 45.3609 117.035 45.137 116.412 44.9628C115.815 44.7638 115.193 44.5647 114.544 44.3656C113.921 44.1915 113.259 43.98 112.559 43.7311C111.884 43.4823 111.261 43.1339 110.69 42.6861C110.119 42.2382 109.639 41.6783 109.25 41.0065C108.887 40.3097 108.705 39.4264 108.705 38.3565C108.705 36.764 109.12 35.4327 109.951 34.3628C110.807 33.2679 111.871 32.3846 113.143 31.7128C114.44 31.0409 115.854 30.5682 117.385 30.2944C118.916 29.9959 120.37 29.8466 121.745 29.8466C123.562 29.8466 125.119 30.0581 126.416 30.4811C127.74 30.8792 128.739 31.352 129.413 31.8994L127.973 37.0874H121.512Z" fill="white"/>
<path d="M149.846 53.9206H141.438L143.774 43.3579H138.986L136.65 53.9206H128.242L133.497 30.2198H141.944L139.648 40.5213H144.396L146.693 30.2198H155.179L149.846 53.9206Z" fill="white"/>
<path d="M161.797 53.9206H153.389L158.644 30.2198H167.091L161.797 53.9206Z" fill="white"/>
<path d="M177.802 43.6938C178.581 43.6938 179.229 43.3828 179.748 42.7607C180.293 42.1386 180.734 41.3797 181.072 40.4839C181.435 39.5882 181.695 38.655 181.85 37.6846C182.006 36.7142 182.084 35.8682 182.084 35.1466C182.084 34.4747 181.967 33.9149 181.733 33.467C181.5 32.9942 180.994 32.7578 180.215 32.7578H178.464L176.011 43.6938H177.802ZM175.466 46.0825L173.715 53.9206H165.307L170.562 30.2198H179.554C181.033 30.2198 182.382 30.2944 183.602 30.4437C184.822 30.593 185.873 30.8916 186.755 31.3395C187.637 31.7874 188.325 32.4344 188.818 33.2804C189.311 34.1015 189.558 35.2088 189.558 36.6022C189.558 37.8961 189.337 39.1278 188.896 40.2973C188.481 41.4419 187.793 42.4497 186.833 43.3206C185.899 44.1666 184.679 44.8384 183.174 45.3361C181.669 45.8337 179.839 46.0825 177.685 46.0825H175.466Z" fill="white"/>
<path d="M200.364 43.6938C201.142 43.6938 201.791 43.3828 202.31 42.7607C202.855 42.1386 203.296 41.3797 203.633 40.4839C203.997 39.5882 204.256 38.655 204.412 37.6846C204.568 36.7142 204.646 35.8682 204.646 35.1466C204.646 34.4747 204.529 33.9149 204.295 33.467C204.062 32.9942 203.556 32.7578 202.777 32.7578H201.025L198.573 43.6938H200.364ZM198.028 46.0825L196.276 53.9206H187.869L193.124 30.2198H202.115C203.595 30.2198 204.944 30.2944 206.164 30.4437C207.383 30.593 208.434 30.8916 209.317 31.3395C210.199 31.7874 210.887 32.4344 211.38 33.2804C211.873 34.1015 212.119 35.2088 212.119 36.6022C212.119 37.8961 211.899 39.1278 211.457 40.2973C211.042 41.4419 210.355 42.4497 209.394 43.3206C208.46 44.1666 207.241 44.8384 205.735 45.3361C204.23 45.8337 202.401 46.0825 200.247 46.0825H198.028Z" fill="white"/>
<path d="M218.838 53.9206H210.43L215.685 30.2198H224.132L218.838 53.9206Z" fill="white"/>
<path d="M243.096 53.9206H233.987L229.666 36.7888L225.851 53.9206H222.348L227.603 30.2198H236.906L240.994 47.5755L244.847 30.2198H248.428L243.096 53.9206Z" fill="white"/>
<path d="M260.439 43.0966H270.521L268.263 53.9206H263.67L262.93 51.5319H262.775C262.1 52.2783 261.295 52.9129 260.361 53.4354C259.453 53.9579 258.259 54.2192 256.78 54.2192C255.638 54.2192 254.535 54.045 253.471 53.6967C252.433 53.3234 251.499 52.7511 250.669 51.9798C249.864 51.1835 249.215 50.1509 248.722 48.8819C248.229 47.6128 247.983 46.0825 247.983 44.291C247.983 42.3501 248.294 40.5088 248.917 38.767C249.54 37.0252 250.474 35.4949 251.72 34.1762C252.965 32.8325 254.522 31.775 256.391 31.0036C258.259 30.2322 260.439 29.8466 262.93 29.8466C264.851 29.8466 266.524 30.0581 267.952 30.4811C269.379 30.9041 270.728 31.3768 272 31.8994L270.521 39.1403H263.942C263.968 38.8666 264.007 38.5431 264.059 38.1698C264.111 37.7966 264.15 37.4109 264.176 37.0128C264.202 36.5898 264.228 36.1792 264.254 35.7811C264.28 35.383 264.293 35.0346 264.293 34.736C264.293 34.537 264.28 34.313 264.254 34.0642C264.228 33.7905 264.163 33.5292 264.059 33.2804C263.955 33.0315 263.8 32.8325 263.592 32.6832C263.384 32.509 263.086 32.4219 262.697 32.4219C262.022 32.4219 261.399 32.6956 260.828 33.2431C260.283 33.7656 259.79 34.4747 259.349 35.3705C258.908 36.2414 258.519 37.2367 258.181 38.3565C257.87 39.4762 257.597 40.6208 257.364 41.7903C257.156 42.9349 256.988 44.067 256.858 45.1868C256.754 46.2816 256.702 47.2396 256.702 48.0607C256.702 48.3095 256.715 48.6206 256.741 48.9938C256.767 49.3671 256.845 49.7403 256.975 50.1135C257.13 50.4619 257.338 50.7729 257.597 51.0466C257.883 51.2955 258.285 51.4199 258.804 51.4199C259.661 51.4199 260.491 50.972 261.295 50.0762C262.1 49.1804 262.71 47.6875 263.125 45.5973H259.855L260.439 43.0966Z" fill="white"/>
<path d="M92.4577 41.6693C92.6852 58.4889 78.8981 66.3344 72.2606 68.1547C81.648 65.5803 95.8712 56.9599 95.8712 41.6693C95.8712 35.3893 94.7334 26.5278 84.4926 18.7336C75.7931 12.1124 63.545 10.746 57.333 10.5468C57.2351 10.5437 57.1433 10.5772 57.0704 10.6397L46.8736 19.397C46.7529 19.5006 46.863 19.6912 47.0192 19.6496C53.5972 17.8978 59.6752 17.65 66.2868 17.9145C73.114 18.1875 92.1991 22.5562 92.4577 41.6693Z" fill="white"/>
<path d="M96.8747 42.4724C96.5847 65.114 114.152 75.6751 122.609 78.1255C110.648 74.6599 92.5252 63.0556 92.5252 42.4724C92.5252 34.0186 93.975 22.0897 107.023 11.5976C118.117 2.67707 133.74 0.842028 141.649 0.576411C141.761 0.572664 141.865 0.61301 141.949 0.688493L154.878 12.4196C155.05 12.5761 154.893 12.8648 154.67 12.8024C146.327 10.4698 138.611 10.1404 130.221 10.495C121.522 10.8625 97.2042 16.7434 96.8747 42.4724Z" fill="#3579F4"/>
</svg>
